<svg xmlns="http://www.w3.org/2000/svg" height="77" width="236.73"><path fill="#154273" d="M0 0h44v77H0z"/><path d="M22.76 57.01H22v-2.12h.76v2.12zm3.45-9.35h-.76v-2.12h.76v2.12zM12.05 44c-.06 0-.45 0-.45.08s.18.04.45.09c.61.1.85.41 1.28.41.39 0 .79-.26.63-.83-.03-.09-.08-.07-.09-.01-.06.25-.37.4-.7.4-.4 0-.49-.14-1.12-.14zm-4.21 2.12c.07.09.79 1.03-.32 1.39-.05.02-.07.06.01.1.82.34 1.22-.29 1.22-.29.41.94-.22 1.46-.22 1.46.09.17.48.45 1.07.59.22-.12.54-.35.67-.71 0 0 .16.41.01.8 1.67.15 2.26-1.18 3.55-.94.04.01.05-.02.05-.06 0-.82-.5-2.33-2.1-2.64-1.59-.31-1.16-.96-1.16-.96.67-.03 1.06.26 1.06.26.12-.2-.05-.42-.05-.42.06-.08.1-.35.1-.35-.75 0-.95-.16-.95-.16-.12-.45.2-1.08 1.32-.4.28-.25.26-.63.26-.63.08-.04.14-.17.14-.23 0-.19-.9-.69-1.13-.75-.06-.27-.4-.66-1.46-.52-.5.06-.86-.07-.69-.36.03-.05-.06-.06-.11-.01-.12.12-.27.44.16.66.48.24.51.73.52.8.01.1-.12.11-.14.01-.22-.82-1.34-.99-2-.56.04.44.51.73.77.73.15 0 .35-.15.35-.35 0-.1.05-.09.08-.01.11.29-.32.89-.96.53-.65.65-.39 1.46-.33 1.75.12.53-.14 1.05-.62.81-.02-.01-.05-.02-.05.04 0 .33.43.71.95.42zm3.58-3.28c-.3.34-.8.26-.92-.3.63-.03.9.03.92.3zm19.4 1.3c-.33 0-.64-.14-.7-.4-.01-.06-.07-.09-.09.01-.16.56.24.83.63.83.43 0 .67-.31 1.28-.41.27-.05.45 0 .45-.09 0-.08-.4-.08-.45-.08-.63 0-.71.14-1.12.14zm6.29 1.56c0-.06-.02-.05-.05-.04-.48.24-.74-.28-.62-.81.07-.3.33-1.1-.33-1.75-.64.37-1.07-.24-.96-.53.03-.08.08-.09.08.01 0 .2.21.35.35.35.26 0 .73-.29.77-.73-.66-.43-1.78-.26-2 .56-.03.1-.15.09-.14-.01 0-.07.03-.56.52-.8.44-.22.28-.54.16-.66-.05-.05-.14-.04-.11.01.17.29-.19.42-.69.36-1.05-.14-1.4.25-1.46.52-.23.06-1.13.56-1.13.75 0 .06.05.19.14.23 0 0-.02.38.26.63 1.12-.68 1.43-.04 1.32.4 0 0-.2.16-.95.16 0 0 .04.27.1.35 0 0-.17.22-.05.42 0 0 .39-.29 1.06-.26 0 0 .43.65-1.16.96-1.59.31-2.1 1.81-2.1 2.64 0 .04.02.06.05.06 1.29-.24 1.88 1.1 3.55.94-.15-.39.01-.8.01-.8.13.35.45.59.67.71.59-.13.98-.42 1.07-.59 0 0-.63-.52-.22-1.46 0 0 .4.63 1.22.29.07-.03.06-.08.01-.1-1.11-.36-.39-1.29-.32-1.39.52.29.95-.09.95-.42zm-3.62-3.16c-.12.56-.62.64-.92.3.03-.27.3-.33.92-.3zm-11.78-9.39c0 .14.06.26.11.33.1.14.08.22.04.26-.05.05-.12.06-.26-.04a.586.586 0 0 0-.33-.11c-.24 0-.36.16-.36.29 0 .14.12.29.36.29.14 0 .26-.06.33-.11.14-.1.22-.08.26-.04.05.05-.02.53-.08.91-.4.08-.59.4-.59.59 0 .48.51.76.82.92.3-.16.82-.44.82-.92 0-.19-.19-.51-.59-.59-.05-.38-.12-.87-.08-.91.05-.05.12-.06.26.04.07.05.19.11.33.11.24 0 .36-.16.36-.29 0-.14-.12-.29-.36-.29-.14 0-.26.06-.33.11-.14.1-.22.08-.26.04-.05-.05-.06-.12.04-.26.05-.07.11-.19.11-.33 0-.24-.16-.36-.29-.36-.16 0-.31.12-.31.36zm.29 3.57a.591.591 0 0 0 0 1.18.591.591 0 0 0 0-1.18zm0 5.63c2.35 0 3.67.45 3.67.45.01-1.18 0-1.85.68-1.75-.37-1 1.23-1.39 1.23-2.68 0-.85-.6-.95-.78-.95-.53 0-.45.35-.9.35-.06 0-.11-.01-.11.03 0 .15.13.4.33.4.28 0 .28-.28.49-.28.09 0 .22.07.22.36 0 .55-.36 1.16-.79 1.64-.1-.14-.23-.22-.39-.22-.25 0-.47.26-.47.59 0 .12.02.21.06.31-.14.08-.27.12-.36.12-.19 0-.48-.08-.48-.5 0-.94 1.26-1.77 1.26-2.96 0-.57-.38-1.14-1.17-1.14-.85 0-.69.78-1.43.78-.03 0-.06.01-.06.04 0 .05.13.48.51.48.41 0 .52-.71.88-.71.14 0 .34.08.34.56 0 .37-.18.97-.45 1.55-.1-.1-.23-.17-.37-.17-.32 0-.54.31-.54.67 0 .23.09.45.25.6-.19.24-.38.43-.63.43-.51 0-.73-.29-.73-.6 0-.34.62-.46.62-1 0-.36-.23-.57-.46-.57-.24 0-.37.16-.39.16-.03 0-.15-.16-.39-.16-.23 0-.46.2-.46.57 0 .53.62.66.62 1 0 .31-.22.6-.73.6-.26 0-.45-.19-.63-.43.16-.15.25-.37.25-.6 0-.37-.23-.67-.54-.67-.15 0-.28.07-.37.17-.26-.58-.45-1.18-.45-1.55 0-.48.2-.56.34-.56.36 0 .48.71.88.71.38 0 .51-.43.51-.48 0-.03-.03-.04-.06-.04-.74 0-.58-.78-1.43-.78-.79 0-1.17.57-1.17 1.14 0 1.19 1.26 2.02 1.26 2.96 0 .42-.29.5-.48.5-.1 0-.22-.05-.36-.12.04-.1.06-.19.06-.31 0-.33-.22-.59-.47-.59-.16 0-.29.08-.39.22-.43-.47-.79-1.09-.79-1.64 0-.28.13-.36.22-.36.21 0 .21.28.49.28.21 0 .33-.26.33-.4 0-.04-.06-.03-.11-.03-.45 0-.37-.35-.9-.35-.18 0-.78.1-.78.95 0 1.3 1.6 1.69 1.23 2.68.68-.1.67.56.68 1.75-.06 0 1.26-.45 3.61-.45zm-4.3 1.75c-.64.14-1.1.27-1.3.33.01-.28.12-.54.37-.6.03-.01.04-.05.01-.07-.57-.38-.87.35-.88.37-.2-.02-.51.05-.51.32 0 .82-1.86 1.27-2.3 1.33.76.29 1.08 1.25 1.08 1.25.55-.55 1.2-1.04 1.34-1.04.15 0 .2.18.21.29 0 .04.04.05.06.02.29-.43.15-.53.13-.66-.02-.1.01-.48.43-.43v5.44l-.22.04c-.1.02-.89-.66-1.81-1.29-.91-.63-1.4-.25-2.44.31-1.36.74-2.73.07-2.73.07-1.17.84-1.57 3.26-1.57 3.26-.23.1-.62.21-.99.21-.89 0-1.06-.54-1.06-.87 0-1.38 1.73-1.97 1.73-3.33 0-.33-.15-1.67-1.81-1.67H3.95c-.62 0-.78-.45-.86-.62-.03-.06-.09-.02-.07.03.05.11-.07.29-.07.63 0 .55.32.88.93.88.28 0 .53-.08.62-.13.06-.03.09.02.06.05-.26.31-.28.88-.18 1.02.03.03.06.02.06 0 .15-.58.69-1.14 1.43-1.14.9 0 .9.77.9.95 0 1.11-1.95 1.92-1.95 3.44 0 1.55 1.63 1.88 2.58 1.63-.06 1.55-1.83 2.07-1.88.97 0-.05-.04-.07-.07 0-.22.55-.14 1.03.55 1.18.05.01.02.04-.02.07-.67.45-.3 2.16-.27 2.66.05.72-.67.64-.73.62-.03-.01-.06 0-.01.06.51.62 1.14.05 1.14.05.48.15.18.56-.14.77-.05.03-.05.07.01.07.07 0 .81.07.94-.52.33.39.81.25.91.2.14-.07.83-.32.9.45 0 .06.04.02.06-.01.52-.66-.04-1.06-.35-1.11.03-.04.44-.38.82.1.03.03.05.04.05-.03.04-.83-.63-.91-1.07-.55-.02-.09-.17-.55.49-.54.02 0 .05-.02.01-.06-.51-.54-.94-.05-1.03.07-.23.27-.8.16-.85.16.18-2.89 2.72-1.87 3.07-3.27.02-.07.05-.05.06-.02.1.34.96.39 1.12-.28.01-.04 0-.07-.03-.04-.74.74-2.4-1.56-.13-3.43 1.93-1.59 3.67-.71 4.32-.18.03.23-.1.31-.19.33-.03.01-.04.04.01.06.18.07.44.05.57-.12.42.29.06.66-.11.76-.04.03-.02.05.01.06.38.07.69-.32.71-.54l.06.04v1.64c0 2.34 2.7 2.66 5.66 4.64 2.96-1.98 5.66-2.31 5.66-4.64V52.1l.06-.04c.02.22.33.61.71.54.04-.01.05-.03.01-.06-.17-.1-.52-.47-.11-.76.12.17.38.19.57.12.05-.02.04-.05.01-.06-.09-.03-.23-.1-.19-.33.66-.52 2.39-1.41 4.32.18 2.26 1.87.6 4.17-.13 3.43-.03-.03-.04 0-.03.04.16.68 1.02.63 1.12.28.01-.03.04-.05.06.02.35 1.4 2.9.38 3.07 3.27-.05.01-.62.11-.85-.16-.1-.12-.52-.61-1.03-.07-.03.03 0 .06.01.06.66-.02.52.45.49.54-.44-.36-1.11-.29-1.07.55 0 .07.03.06.05.03.38-.48.79-.13.82-.1-.31.05-.87.45-.35 1.11.02.03.05.07.06.01.07-.78.76-.52.9-.45.1.05.58.19.91-.2.13.59.87.52.94.52.05 0 .06-.04.01-.07-.32-.21-.61-.62-.14-.77 0 0 .63.57 1.14-.05.04-.06.02-.07-.01-.06-.06.02-.78.11-.73-.62.03-.5.4-2.21-.28-2.64-.04-.03-.07-.05-.02-.07.69-.15.78-.63.55-1.18-.03-.07-.07-.06-.07 0-.05 1.11-1.82.58-1.88-.97.95.24 2.58-.09 2.58-1.63 0-1.52-1.95-2.34-1.95-3.44 0-.19 0-.95.9-.95.74 0 1.28.55 1.43 1.14.01.03.04.04.06 0 .11-.14.09-.72-.18-1.02-.03-.03 0-.08.06-.05.08.05.34.13.62.13.6 0 .93-.33.93-.88 0-.35-.12-.52-.07-.63.02-.05-.04-.09-.07-.02-.09.17-.24.62-.86.62h-1.49c-1.66 0-1.81 1.34-1.81 1.67 0 1.36 1.73 1.95 1.73 3.33 0 .32-.16.87-1.06.87-.37 0-.75-.1-.99-.21 0 0-.4-2.42-1.57-3.26 0 0-1.37.67-2.73-.07-1.04-.56-1.53-.94-2.44-.31-.91.63-1.71 1.31-1.8 1.29l-.22-.04v-5.44c.42-.04.45.33.43.43-.02.13-.16.23.13.66.02.03.06.02.06-.02.01-.11.07-.29.21-.29.14 0 .79.49 1.34 1.04 0 0 .32-.96 1.08-1.25-.43-.07-2.3-.52-2.3-1.33 0-.27-.31-.34-.51-.32-.01-.02-.31-.75-.88-.37-.03.02-.02.06.01.07.25.06.36.32.37.6-.54-.17-2.86-.82-5.6-.82-1.33 0-2.56.15-3.54.33v1.89h-.74V44.1m-5.06 19.32c-.2-.08-.34-.21-.34-.48v-1.17c-.34-.12-1.25-.47-3.08-.47-1.52 0-2 .34-2.02.46l-.4 2.23s.62-.56 2.82-.42c2.66.17 5.41 1.74 5.41.07v-.98c-2.09 0-2.39.66-2.39.76zm16.34-.76v.98c0 1.67 2.75.1 5.41-.07 2.2-.14 2.82.42 2.82.42l-.4-2.23c-.02-.12-.5-.46-2.02-.46-1.83 0-2.75.35-3.08.47v1.17c0 .27-.13.4-.34.48-.01-.1-.31-.76-2.39-.76zM22 61.65c4.28 0 8.62.22 9.19.87.05.05.06 0 .06-.04v-2.27c0-.66-4.48-1.05-9.25-1.05s-9.25.38-9.25 1.05v2.27c0 .04.02.09.06.04.57-.65 4.91-.87 9.19-.87zm-3.81-10.69l-.43-.11-.04.05-.5-.22h.45c.04 0 .04-.03.02-.05l-.38-.38s.2.08.5.18c.03.01.05-.01.03-.03-.14-.21-.33-.48-.33-.48l.49.33c.03.02.05 0 .04-.03l-.23-.57.44.42c.02.02.04.01.04-.02-.04-.2-.12-.57-.12-.57l.33.48c.02.03.04.02.04-.01 0-.09.01-.52.01-.52s.14.31.21.48c.01.03.04.03.06-.01.02-.05.17-.4.17-.4l.02.54-.07.01-.09.65c.65-.15 1.45-1.26 2.07-1.26.73 0 1 .86 2.36.42.34.51.46.95.59 1.56.52.49 1.26.33 1.26-.19 0-.7-.77-.84-.77-1.57 0-.33.23-.8.86-.8.33 0 .82.14 1.1.14.33 0 .4-.24.44-.34.03-.07.12-.05.11.01-.01.07.04.16.04.32 0 .46-.68.52-.76.47-.03-.02-.06.01-.03.03.1.08.08.36-.04.53-.01.02-.03.02-.04 0-.07-.33-.46-.74-.81-.74-.13 0-.38.07-.38.37 0 .42.84.8.84 1.66 0 .9-.89 1.11-1.79.89.03.85 1.3 1.36 1.33.75 0-.04.02-.02.04 0 .19.26.1.46-.14.56.22.1.26.55.33.81.1.4.52.18.54.17.02-.01.03 0 .02.02-.16.42-.59.26-.59.26-.22.16.05.3.25.36.03.01.03.03 0 .04-.15.05-.47.15-.62-.11-.11.28-.35.27-.44.27-.16 0-.27.17-.23.39 0 .02-.01.03-.03.01-.39-.26-.17-.56-.01-.64a.28.28 0 0 0-.41.19c-.01.02-.02.03-.03 0-.17-.45.2-.59.47-.47-.02-.06-.16-.29-.51-.21-.02 0-.03 0-.02-.02.06-.14.23-.34.55-.14.16.1.45-.05.47-.06-.57-1.13-1.67-.18-1.92-1.07 0-.02-.03-.03-.04.01-.06.19-.54.2-.63-.17-.01-.03 0-.03.02-.01.07.07.22.14.42-.15.13-.19.15-.44.15-.62 0-.69-.69-1.84-1.76-1.84-.68 0-1.41.26-1.95.66l.5.12c-.05.51-.54.81-.99.68l.08-.58c-.08.02-.28.09-.38.24-.01.01-.02.01-.03 0-.09-.33.18-.5.27-.54.01-.01.01-.01-.01-.01-.24-.01-.38.17-.42.23-.01.01-.02.01-.02 0-.05-.08-.09-.25.03-.37zm1.49 3.93c-.19.24-.36.01-.62.01-.24 0-.28.2-.28.28 0 .01-.01.02-.02 0-.27-.37.03-.57.21-.6-.03-.03-.29-.2-.46.04-.01.02-.03.01-.03-.01-.01-.46.35-.49.59-.29.04-.17-.07-.29-.26-.3-.02 0-.03-.02-.02-.03.08-.09.16-.13.24-.13.25 0 .29.32.45.32.25 0 .6-.34.64-.37-.01-.02-.25-.66-.2-1.05 0-.02-.01-.02-.02-.01-.12.07-.43.07-.43-.31 0-.03.01-.03.03-.01.13.19.35-.02.46-.15.12-.13.75-1.04 1.58-1.04.18 0 .42.1.61.23-.29.35 0 .69.21.65.03 0 .03.02.01.03-1.11.42-1.6.58-1.6 1.51 0 .48.17.75.45.69.02-.01.03 0 .01.02-.1.12-.22.16-.32.16-.23 0-.27-.13-.39-.13-.13 0-.54.24-.54.45 0 .08.05.18.19.28.01.01 0 .01 0 .02-.09.03-.41.05-.49-.26zm2.92-9.01c-.35-.02-.57.06-.56.17.17.18.39.16.56-.17zm-1.28.86c.24-.06.51-.03.54-.02.04.01.04.07-.01.08-.51.07-.53.3-.86.3-.21 0-.45-.22-.36-.53.01-.04.04-.04.05 0 .04.12.24.27.64.17zm-6.62 11.3c.34.43.66.03 1.1.03.22 0 .48.07.53.51 0 .02.02.03.04 0 .48-.66-.07-1.03-.38-1.08.07-.06.54-.35.84.08.02.02.05.02.05-.02 0-.83-.63-.89-1.08-.53-.09-.33.16-.54.48-.54.04 0 .05-.03.03-.05-.56-.6-.98.15-1.07.27-.22.3-1.02-.26-1.34-.59 0 0 .71-.74.71-1.42v-.12c0-.02.01-.03.03-.02.07.04.17.07.26.07.16 0 .47-.05.47-.62 0-.04-.02-.04-.04-.02-.08.12-.18.15-.25.15-.57 0-1.76-1.9-3.16-1.9-.37 0-1.06.26-1.41.64.17.1.2.31.18.46-.03.24-.22.36-.41.42-.03.01-.04.03 0 .05.71.27 2 .76 2.29 1.01.35.3.28.87.08 1.65-.19.75-.61.65-.76.62-.02 0-.03.01-.02.03.18.23.41.31.6.31.37 0 .51-.23.7-.23.32 0 .99.46.99.81 0 .2-.15.37-.35.5-.01.01-.01.02.01.03.13.01.76.06.88-.5zm15.5.49c.02 0 .02-.02.01-.03-.2-.13-.35-.31-.35-.5 0-.35.67-.81.99-.81.19 0 .33.23.7.23.19 0 .41-.08.6-.31.01-.02.01-.03-.02-.03-.15.02-.57.13-.76-.62-.2-.78-.27-1.35.08-1.65.29-.25 1.58-.74 2.29-1.01.04-.02.03-.04 0-.05-.2-.05-.39-.17-.41-.42-.02-.15.01-.36.18-.46-.35-.38-1.04-.64-1.41-.64-1.4 0-2.59 1.9-3.16 1.9-.07 0-.16-.03-.25-.15-.02-.03-.04-.03-.04.02 0 .57.3.62.47.62.09 0 .19-.03.26-.07.02-.01.03 0 .03.02v.12c0 .68.71 1.42.71 1.42-.32.33-1.12.89-1.34.59-.1-.12-.51-.87-1.07-.27-.02.02-.01.05.03.05.31 0 .56.21.48.54-.45-.36-1.08-.3-1.08.53 0 .03.03.04.05.02.3-.43.77-.14.84-.08-.32.05-.87.42-.38 1.08.02.03.04.02.04 0 .05-.43.31-.51.53-.51.44 0 .77.41 1.1-.03.1.57.73.52.88.5zM18.85 47.56c-.04.06-.19 0-.25-.03-.01-.01-.02 0-.01.01.04.08.18.32.39.32.1 0 .23-.06.27-.12 0 0 .83.27 1.23.38a1.4 1.4 0 0 0-.28.74c-.33-.2-1.65-.91-1.65-.91l-.41.56c-.07.09-.39-.15-.33-.24l.31-.43c-.1-.11-.35-.04-.42-.02-.01 0-.02 0-.01-.02.04-.08.19-.34.58-.23 0-.24-.35-.16-.44-.14-.01 0-.01 0 0-.01.1-.1.38-.33.7-.14l.14-.19-.28-.3.18-.24.2.27 1.52-2.08c.04-.05.34-.14.45-.16.01.12.02.43-.01.48l-1.5 2.1.32.1-.17.24-.37-.17-.16.23zm5.33-.34c0 .19.12.47.37.39.01-.01.02 0 .02.01-.04.21-.42.41-.59.16-.15.33-.12.63.21.81.02.01.02.03 0 .05-.2.14-.51.11-.65-.17-.27.21-.23.64-.07.79 0 0-.76.45-1.44.13-.45-.22-.82-.5-1.41-.45.08-.82.49-1.04 1.25-1.16.6-.1.68-.38.59-.59-.21-.05-.58.13-.58.13-.07-.11.03-.23.03-.23-.04-.05-.06-.2-.06-.2.42 0 .5-.09.5-.09.08-.44-.37-.49-.71-.25-.16-.14-.13-.33-.13-.33-.05-.02-.08-.1-.08-.13 0-.1.5-.39.63-.42.03-.15.21-.35.75-.3.06-.14-.04-.66-.1-.79-.02-.04.01-.07.06-.04.19.12.37.55.5.56 0 0 .6-.31.63-.3.03.02.11.68.11.68.08.1.54 0 .74.09.05.02.05.06 0 .07-.15.03-.63.23-.71.37.27.43.14 1.04.14 1.21z" fill="#fff"/><path d="M63.19 46.04c-.23.03-.48.05-.74.05-.16 0-.3 0-.44-.01-.12 0-.25-.01-.37-.01-.12-.01-.23-.03-.34-.04-.12-.01-.23-.04-.36-.07v-.26c.56-.14.84-.48.81-1.04l-.34-6.24h-.03l-2.45 7.62-.54.07-2.47-7.68-.01.01-.43 6.88.89.23v.3c-.15.04-.29.08-.4.11-.12.03-.25.06-.36.07-.12.03-.25.04-.38.04-.12.01-.27.01-.44.01-.15 0-.33-.01-.52-.04-.18-.03-.37-.05-.54-.1v-.25c.26-.08.45-.18.58-.3.14-.14.22-.3.23-.51l.6-7.02-.8-.23v-.4c.15-.01.32-.04.48-.05.16-.01.33-.01.49-.03.16 0 .33-.01.48-.01h.91l2.16 6.66h.01l2.09-6.66h.59c.25 0 .52 0 .81.01.29.01.58.04.85.08v.4l-.85.21.6 7.55.8.15v.3c-.15.1-.34.16-.57.2zm3.83-.09c-.12.03-.23.06-.37.07-.12.01-.26.03-.4.04-.15 0-.3.01-.48.01-.15 0-.33-.01-.51-.03-.19-.01-.37-.04-.52-.1v-.23c.1-.03.18-.07.27-.12.08-.05.17-.11.23-.18.07-.05.12-.12.17-.21.04-.07.05-.15.05-.23v-4.64l-.88-.37v-.29c.32-.1.62-.15.91-.19.29-.06.54-.07.73-.07h.44l-.07.74v5.22l.77.21v.26c-.12.05-.23.09-.34.11zm-.27-8.31c-.04.1-.1.19-.16.26-.07.08-.15.14-.25.18a.63.63 0 0 1-.3.07.74.74 0 0 1-.29-.05.912.912 0 0 1-.23-.17.874.874 0 0 1-.15-.25.86.86 0 0 1-.05-.32c0-.11.01-.21.05-.3.03-.1.08-.18.15-.26.07-.08.15-.14.25-.18.1-.04.21-.07.33-.07.1 0 .19.01.28.05.08.03.16.08.23.15.07.05.11.14.15.23.04.08.06.19.06.3-.01.14-.02.25-.07.36zm6.66 8.44c-.14 0-.29-.01-.45-.03-.15-.01-.3-.04-.44-.1v-.23c.18-.08.3-.18.37-.33.08-.14.12-.33.12-.58v-2.62c0-.33-.04-.62-.1-.85-.07-.25-.16-.44-.29-.58a1.06 1.06 0 0 0-.43-.33c-.18-.07-.36-.1-.56-.1-.28 0-.55.04-.8.12-.26.08-.47.19-.62.3v4.62l.77.21v.26c-.12.04-.23.08-.34.11-.12.03-.25.06-.37.07-.12.01-.26.03-.41.04-.14 0-.29.01-.47.01-.16 0-.34-.01-.52-.03a1.65 1.65 0 0 1-.51-.1v-.23c.1-.03.18-.07.26-.12.1-.05.17-.11.23-.18.07-.05.12-.12.18-.21.04-.07.05-.15.05-.23v-4.64l-.89-.37v-.3c.32-.1.62-.15.91-.19.29-.04.54-.06.74-.06h.33v.74c.23-.23.54-.43.89-.56.36-.14.74-.21 1.14-.21.29 0 .55.04.78.14.23.1.44.23.6.41.17.18.3.4.4.66.08.28.14.59.14.93v3.85l.71.21v.26c-.36.16-.85.24-1.42.24zm4.75-.13c-.12.03-.23.06-.37.07-.12.01-.26.03-.4.04-.15 0-.3.01-.48.01-.15 0-.33-.01-.51-.03-.19-.01-.37-.04-.52-.1v-.23c.1-.03.18-.07.27-.12.08-.05.17-.11.23-.18.07-.05.12-.12.17-.21.04-.07.05-.15.05-.23v-4.64l-.88-.37v-.29c.32-.1.62-.15.91-.19.29-.06.54-.07.73-.07h.44l-.07.74v5.22l.77.21v.26c-.12.05-.23.09-.34.11zm-.26-8.31c-.04.1-.1.19-.16.26-.07.08-.15.14-.25.18a.63.63 0 0 1-.3.07.74.74 0 0 1-.29-.05.764.764 0 0 1-.23-.17.874.874 0 0 1-.21-.57c0-.11.01-.21.06-.3.03-.1.08-.18.15-.26.07-.08.15-.14.25-.18.1-.04.21-.07.33-.07.1 0 .19.01.28.05.08.03.16.08.23.15.07.05.11.14.15.23.04.08.06.19.06.3-.01.14-.03.25-.07.36zm5.56 7.27c-.12.23-.3.45-.52.63-.22.19-.49.34-.81.45-.3.11-.66.16-1.04.16-.6 0-1.04-.1-1.32-.29-.29-.18-.43-.47-.43-.84 0-.1.01-.19.03-.3.03-.1.05-.18.1-.26.3.29.62.51.92.65.32.15.65.22 1.02.22.38 0 .67-.08.88-.25.19-.16.29-.36.29-.6a.88.88 0 0 0-.05-.33c-.04-.1-.11-.19-.19-.29-.1-.1-.22-.18-.37-.28a5.78 5.78 0 0 0-.56-.28l-.69-.29c-.4-.16-.7-.4-.92-.69-.21-.29-.32-.62-.32-1.02 0-.28.05-.54.17-.77.12-.25.29-.47.49-.64.21-.18.45-.33.76-.44.29-.11.62-.17.98-.17.27 0 .51.03.7.07.19.03.36.1.48.16.12.07.22.17.28.26.05.11.08.23.08.36 0 .11 0 .21-.01.29-.01.1-.04.19-.05.29-.22-.15-.47-.28-.76-.37-.27-.1-.55-.15-.81-.15-.22 0-.41.03-.58.07-.16.04-.29.11-.4.18-.11.08-.19.18-.25.28-.04.11-.07.22-.07.33 0 .12.01.23.04.33.04.11.1.19.18.28.08.1.19.18.33.25.14.08.32.15.52.23l.74.29c.25.1.45.21.63.32.17.11.32.23.43.37.1.15.18.3.23.47.04.17.07.36.07.55-.02.26-.07.52-.2.77zm3.37 1.22c-.55 0-.96-.15-1.24-.45-.26-.3-.4-.78-.4-1.46 0-.33 0-.67.01-1.02.01-.36.01-.69.03-1l.04-1.83h-.76v-.45l1.48-1.47.45-.05-.06 1.24h1.81l-.1.74h-1.76l-.03 1.73c0 .29-.01.56-.01.84v.77c0 .28.01.51.05.7.04.19.1.34.18.47.07.11.15.19.26.25.1.05.22.08.34.08.21 0 .38-.03.56-.1.17-.07.32-.15.45-.26l.14.05c-.01.81-.5 1.22-1.44 1.22zm7.35-3.36h-4.05c0 .38.05.73.15 1.03.11.3.26.55.44.76.18.21.4.37.65.48.25.11.51.16.8.16.16 0 .33-.01.51-.04s.34-.07.51-.12c.18-.04.33-.11.49-.18.15-.08.3-.17.43-.25.01.03.03.08.04.15.01.07.01.14.01.21 0 .17-.06.32-.17.45-.11.14-.26.27-.47.38-.21.11-.45.19-.74.26-.3.07-.63.1-.99.1-.4 0-.76-.07-1.1-.22-.36-.15-.65-.36-.91-.63-.26-.28-.47-.61-.62-.99-.14-.38-.22-.82-.22-1.3 0-.59.08-1.13.25-1.6.16-.45.38-.84.66-1.15.26-.3.56-.55.91-.7.34-.16.7-.25 1.06-.25.37 0 .7.06 1 .18.29.12.54.29.74.51.21.23.36.5.47.81.11.33.16.67.16 1.07v.41c0 .14 0 .3-.01.47zm-1.19-1.6a1.98 1.98 0 0 0-.29-.62c-.12-.16-.26-.29-.44-.37-.17-.08-.36-.12-.55-.12-.19 0-.37.06-.56.17-.19.1-.36.25-.49.43-.15.18-.26.4-.36.63-.1.25-.14.49-.14.77h2.94c-.01-.35-.05-.64-.11-.89zm6.37-.82c-.04.15-.1.29-.17.41-.12-.1-.26-.18-.41-.23-.15-.05-.29-.08-.44-.08-.43 0-.82.19-1.21.56v4.37l.95.21v.26c-.11.04-.23.08-.36.11-.11.03-.23.06-.37.07-.14.01-.29.03-.44.04-.17 0-.34.01-.54.01-.21 0-.4-.01-.58-.03-.19-.01-.37-.04-.52-.1v-.23c.1-.03.18-.07.26-.12.1-.05.17-.11.23-.18.07-.05.12-.12.18-.21.04-.07.05-.15.05-.23v-4.64l-.89-.37v-.3c.32-.1.62-.15.91-.19.29-.04.54-.06.74-.06h.33v.96h.01l.38-.43c.18-.21.38-.36.58-.45.19-.1.4-.15.63-.15.48 0 .71.19.71.59.02.12.01.26-.03.41zm3.06 5.6c-.12.03-.23.06-.37.07-.12.01-.26.03-.4.04-.15 0-.3.01-.48.01-.15 0-.33-.01-.51-.03-.19-.01-.37-.04-.52-.1v-.23c.1-.03.18-.07.27-.12.08-.05.17-.11.23-.18.07-.05.12-.12.17-.21.04-.07.05-.15.05-.23v-4.64l-.88-.37v-.29c.32-.1.62-.15.91-.19.29-.06.54-.07.73-.07h.44l-.07.74v5.22l.77.21v.26c-.12.05-.23.09-.34.11zm-.26-8.31c-.04.1-.1.19-.16.26-.07.08-.15.14-.25.18a.63.63 0 0 1-.3.07.74.74 0 0 1-.29-.05.764.764 0 0 1-.23-.17.874.874 0 0 1-.21-.57c0-.11.01-.21.06-.3.03-.1.08-.18.15-.26.07-.08.15-.14.25-.18.1-.04.21-.07.33-.07.1 0 .19.01.28.05.08.03.16.08.23.15.07.05.11.14.15.23.04.08.06.19.06.3-.02.14-.03.25-.07.36zm6.75 5.13h-4.05c0 .38.05.73.15 1.03.11.3.26.55.44.76.18.21.4.37.65.48.25.11.51.16.8.16a3 3 0 0 0 .51-.04c.18-.03.34-.07.51-.12.18-.04.33-.11.49-.18.15-.08.3-.17.43-.25.01.03.03.08.04.15.01.07.01.14.01.21 0 .17-.06.32-.17.45-.11.14-.26.27-.47.38-.21.11-.45.19-.74.26-.3.07-.63.1-.99.1-.4 0-.76-.07-1.1-.22-.36-.15-.65-.36-.91-.63-.26-.28-.47-.61-.62-.99-.14-.38-.22-.82-.22-1.3 0-.59.08-1.13.25-1.6.16-.45.38-.84.66-1.15.26-.3.56-.55.91-.7.34-.16.7-.25 1.06-.25.37 0 .7.06 1 .18.29.12.54.29.74.51.21.23.36.5.47.81.11.33.16.67.16 1.07v.41c.01.14.01.3-.01.47zm-1.19-1.6a1.98 1.98 0 0 0-.29-.62c-.12-.16-.26-.29-.44-.37-.17-.08-.36-.12-.55-.12-.19 0-.37.06-.56.17-.19.1-.36.25-.49.43-.15.18-.26.4-.36.63-.1.25-.14.49-.14.77h2.94c0-.35-.04-.64-.11-.89zm10.17-1.11l-2.43 6.06-.48.03-2.32-6-.56-.4v-.33h2.61v.33l-.78.33 1.5 4.35h.01l1.52-4.31-.8-.37v-.33h2.13v.33l-.4.31zm5.56 5.79c-.17.14-.34.25-.52.33-.14-.08-.25-.18-.36-.29-.1-.12-.19-.25-.27-.38-.1.1-.21.18-.34.26-.15.08-.29.15-.45.21-.16.07-.33.11-.52.14-.18.04-.36.05-.54.05-.26 0-.49-.04-.7-.11-.22-.08-.4-.18-.55-.32-.17-.14-.27-.3-.37-.49-.08-.18-.12-.38-.12-.6 0-.3.08-.59.25-.85.15-.27.38-.51.7-.71.3-.21.67-.37 1.11-.49.44-.11.95-.18 1.51-.18v-.37c0-.37-.03-.67-.07-.91a1.47 1.47 0 0 0-.22-.55.9.9 0 0 0-.38-.28c-.15-.04-.33-.07-.55-.07-.38 0-.74.08-1.1.23-.34.15-.67.37-.96.66-.03-.12-.04-.26-.04-.41 0-.22.04-.41.12-.59.08-.17.22-.32.4-.43.18-.12.41-.22.7-.28.29-.07.63-.1 1.03-.1.34 0 .66.04.93.12.27.1.49.21.69.37.19.17.34.36.44.58.1.22.15.48.15.77 0 .07 0 .16-.01.29 0 .11 0 .23-.01.37 0 .12-.01.26-.01.38s-.01.25-.01.34l-.04 2.23c.05.12.12.25.22.37s.21.23.33.33c-.12.13-.26.25-.44.38zm-1.18-2.81c-.38 0-.73.04-1.03.11-.3.08-.55.18-.74.3-.21.12-.36.28-.47.44-.1.18-.15.34-.15.54 0 .27.1.49.27.66.18.17.44.25.8.25.11 0 .22-.01.33-.03.12-.03.25-.05.36-.08.12-.03.23-.07.34-.12.11-.04.21-.08.29-.14v-1.93zm7.75 3.04c-.14 0-.29-.01-.45-.03-.15-.01-.3-.04-.44-.1v-.23c.18-.08.3-.18.37-.33.08-.14.12-.33.12-.58v-2.62c0-.33-.04-.62-.1-.85-.07-.25-.16-.44-.29-.58a1.06 1.06 0 0 0-.43-.33c-.18-.07-.36-.1-.56-.1-.28 0-.55.04-.8.12-.26.08-.47.19-.62.3v4.62l.77.21v.26c-.12.04-.23.08-.34.11-.12.03-.25.06-.37.07-.12.01-.26.03-.41.04-.14 0-.29.01-.47.01-.17 0-.34-.01-.52-.03a1.65 1.65 0 0 1-.51-.1v-.23c.1-.03.18-.07.26-.12.1-.05.17-.11.23-.18.07-.05.12-.12.18-.21.04-.07.05-.15.05-.23v-4.64l-.89-.37v-.3c.32-.1.62-.15.91-.19.29-.04.54-.06.74-.06h.33v.74c.23-.23.54-.43.89-.56.36-.14.74-.21 1.14-.21.29 0 .55.04.78.14.23.1.44.23.61.41.16.18.3.4.4.66.08.28.14.59.14.93v3.85l.71.21v.26c-.38.16-.86.24-1.43.24zm11.2-8.24c-.12.14-.22.36-.32.63l-2.43 7.57-.55.04-2.69-8.21-.74-.23v-.29c.23-.07.47-.14.67-.17.22-.04.45-.05.69-.05h.33c.1 0 .19.01.29.01.1.01.19.03.29.04.11.03.22.04.36.07v.26c-.22.05-.37.16-.43.32-.07.15-.07.33 0 .54l1.65 5.63h.01l1.79-6.11-.87-.23v-.29c.25-.08.49-.14.74-.18.25-.04.49-.05.74-.05.18 0 .34.01.48.03.15.03.3.07.45.11v.26c-.18.05-.33.16-.46.3zm6.39 6.18c-.18.45-.41.84-.71 1.17-.3.32-.64.56-1.03.73-.4.18-.8.26-1.2.26-.41 0-.81-.07-1.17-.22-.37-.14-.69-.34-.96-.62-.26-.26-.48-.6-.65-.99-.15-.4-.23-.84-.23-1.35 0-.56.1-1.07.26-1.53.18-.45.43-.85.71-1.17.3-.31.65-.56 1.03-.74.38-.18.8-.26 1.22-.26.43 0 .81.08 1.18.23.37.15.69.36.95.65.28.28.48.61.63.99.17.4.23.83.23 1.31.01.56-.07 1.08-.26 1.54zm-1.13-2.49c-.1-.3-.23-.56-.4-.78-.18-.21-.37-.37-.59-.48a1.53 1.53 0 0 0-.7-.16c-.23 0-.47.07-.69.18-.23.12-.44.29-.61.52-.18.23-.33.52-.43.87-.11.34-.16.74-.16 1.2 0 .41.05.78.15 1.08.1.32.23.58.4.8.18.21.37.37.59.48.22.1.45.15.7.15.23 0 .45-.06.69-.17.22-.11.43-.29.6-.52.18-.22.32-.51.43-.87.11-.34.17-.76.17-1.22 0-.41-.05-.76-.15-1.08zm4.74 4.42c-.12.03-.25.06-.37.07-.12.01-.26.03-.41.04-.14 0-.29.01-.47.01-.16 0-.34-.01-.52-.03a1.65 1.65 0 0 1-.51-.1v-.23c.1-.03.18-.07.26-.12.1-.05.16-.11.23-.18.07-.05.12-.12.18-.21.04-.07.05-.15.05-.23V37l-.89-.37v-.3c.15-.04.32-.08.47-.11.15-.03.3-.06.45-.08.14-.01.27-.03.4-.04.12 0 .23-.01.33-.01h.44l-.07.77v8.52l.77.21v.26c-.11.04-.22.08-.34.1zm6.95.06c-.16.04-.34.07-.55.07-.19 0-.37-.04-.54-.12-.17-.08-.3-.22-.44-.4l-2.24-2.95v2.78l.71.22v.26c-.12.04-.25.08-.37.1-.11.03-.23.06-.36.07-.12.03-.25.04-.38.04-.12.01-.28.01-.44.01-.15 0-.33-.01-.51-.03-.19-.01-.37-.04-.52-.1v-.23c.1-.03.19-.07.28-.12.1-.05.16-.11.23-.18.07-.05.12-.12.18-.21.04-.07.05-.15.05-.23v-7.97l-.91-.37v-.3c.32-.1.63-.15.92-.19.29-.03.54-.05.73-.05h.47l-.08.77v5.49l.76-.66c.18-.16.37-.33.54-.52.16-.19.32-.38.45-.58.12-.19.23-.4.3-.58.08-.19.12-.37.12-.52.12-.04.25-.07.36-.08.11-.01.23-.03.37-.03.11 0 .21.01.29.03.08.03.18.06.26.1 0 .15-.05.32-.12.49-.08.19-.19.4-.34.61-.15.21-.36.43-.58.65-.23.22-.51.45-.82.67l-.48.34 2.12 2.57c.19.23.37.4.55.51.17.1.33.15.47.15v.29c-.16.08-.33.16-.48.2zm5.07-1.1c-.12.23-.3.45-.52.63-.22.19-.49.34-.81.45-.3.11-.66.16-1.04.16-.6 0-1.04-.1-1.32-.29-.29-.18-.43-.47-.43-.84 0-.1.01-.19.03-.3.03-.1.05-.18.1-.26.3.29.62.51.92.65.32.15.65.22 1.02.22.38 0 .67-.08.88-.25.19-.16.29-.36.29-.6a.72.72 0 0 0-.06-.33c-.04-.1-.11-.19-.19-.29-.1-.1-.22-.18-.37-.28a5.78 5.78 0 0 0-.56-.28l-.69-.29c-.4-.16-.7-.4-.92-.69-.21-.29-.32-.62-.32-1.02 0-.28.05-.54.16-.77.12-.25.29-.47.5-.64.21-.18.45-.33.76-.44.29-.11.62-.17.97-.17.28 0 .51.03.7.07.19.03.36.1.48.16.12.07.22.17.28.26.05.11.08.23.08.36 0 .11 0 .21-.01.29-.01.1-.04.19-.05.29-.22-.15-.47-.28-.76-.37-.28-.1-.55-.15-.81-.15-.22 0-.41.03-.58.07-.17.04-.29.11-.4.18-.11.08-.19.18-.25.28-.04.11-.07.22-.07.33 0 .12.01.23.04.33.04.11.1.19.18.28.08.1.19.18.33.25.14.08.32.15.52.23l.74.29c.25.1.45.21.63.32.16.11.32.23.43.37.1.15.18.3.23.47.04.17.07.36.07.55 0 .26-.05.52-.18.77zm7.03-4.6c-.22-.05-.45-.08-.7-.11-.25-.03-.49-.04-.77-.04v.01c.11.08.22.19.32.3.1.11.18.23.25.36.07.14.12.28.16.41.03.15.05.29.05.43 0 .4-.08.75-.23 1.09-.15.33-.36.62-.6.85-.26.23-.55.41-.89.55-.33.12-.69.19-1.06.19a2.095 2.095 0 0 1-.85-.16c-.05.03-.11.07-.15.12-.05.04-.1.1-.15.16-.04.05-.07.11-.1.18-.03.07-.04.12-.04.19 0 .21.08.37.23.47.16.11.37.16.64.16l1.92-.01c.58 0 1.03.11 1.33.37.32.26.47.66.47 1.17 0 .33-.08.63-.26.93-.16.29-.4.54-.7.76-.3.22-.64.4-1.06.52-.41.12-.85.19-1.33.19-.44 0-.81-.04-1.14-.12-.33-.08-.61-.19-.82-.34-.22-.14-.38-.32-.49-.51-.11-.19-.17-.41-.17-.63 0-.18.03-.36.1-.52.07-.15.16-.3.27-.44.12-.12.26-.25.41-.34.16-.1.33-.17.52-.22v-.01c-.25-.1-.45-.22-.59-.41a.993.993 0 0 1-.22-.66c0-.14.03-.26.08-.38.04-.14.11-.25.21-.36.08-.11.19-.22.3-.3.11-.08.23-.15.37-.19v-.01c-.16-.07-.32-.15-.45-.27-.15-.11-.29-.25-.4-.41-.11-.17-.21-.36-.28-.56a2.03 2.03 0 0 1-.11-.66c0-.38.07-.74.22-1.07.14-.33.33-.62.58-.87.25-.25.55-.44.88-.58a2.71 2.71 0 0 1 1.5-.17c.15.03.29.07.43.11.14.04.26.08.37.14.11.05.19.11.25.16.07-.05.14-.11.23-.16.1-.06.19-.1.3-.14.11-.04.22-.07.33-.1.12-.03.23-.04.34-.04.11 0 .23.01.33.03.11.01.19.03.26.05l-.09.89zm-1.43 6.37c-.18-.15-.43-.22-.76-.22h-2.21c-.1.04-.19.11-.28.18-.08.08-.16.16-.22.26-.07.1-.11.21-.15.31-.04.11-.05.23-.05.34 0 .15.04.27.11.4.07.14.19.25.33.33.15.1.33.18.55.23.22.05.48.08.77.08.33 0 .62-.04.89-.11.26-.08.5-.18.69-.29.19-.12.33-.26.44-.42.1-.15.15-.32.15-.48a.725.725 0 0 0-.26-.61zm-.57-5.73c-.07-.21-.18-.38-.3-.54-.12-.14-.27-.23-.44-.31-.16-.07-.34-.1-.52-.1-.19 0-.38.04-.56.14-.17.08-.32.22-.45.38-.12.16-.23.37-.32.61-.07.25-.11.51-.11.81 0 .29.04.55.11.76.07.22.16.4.29.54.12.14.28.25.43.32.17.07.33.11.5.11.21 0 .41-.04.59-.11.18-.08.33-.19.47-.36.14-.16.25-.37.32-.62.08-.25.12-.54.12-.87-.02-.29-.06-.54-.13-.76zm7.8 1.82h-4.05c0 .38.05.73.15 1.03.11.3.26.55.44.76.18.21.4.37.65.48.25.11.51.16.8.16.16 0 .33-.01.51-.04s.34-.07.51-.12c.18-.04.33-.11.49-.18.15-.08.3-.17.43-.25.01.03.03.08.04.15.01.07.01.14.01.21 0 .17-.05.32-.17.45-.11.14-.26.27-.47.38-.21.11-.45.19-.74.26-.3.07-.63.1-.99.1-.4 0-.76-.07-1.1-.22-.36-.15-.65-.36-.91-.63-.26-.28-.47-.61-.62-.99-.14-.38-.22-.82-.22-1.3 0-.59.08-1.13.25-1.6.16-.45.38-.84.66-1.15.26-.3.56-.55.91-.7.34-.16.7-.25 1.06-.25.37 0 .7.06 1 .18.29.12.54.29.74.51.21.23.36.5.47.81.11.33.16.67.16 1.07v.41c0 .14 0 .3-.01.47zm-1.2-1.6c-.07-.25-.16-.45-.29-.62-.12-.16-.26-.29-.44-.37-.16-.08-.36-.12-.55-.12s-.37.06-.56.17c-.19.1-.36.25-.49.43-.15.18-.26.4-.36.63-.1.25-.14.49-.14.77h2.94c0-.35-.04-.64-.11-.89zm6.8 4.78h-4.68l-.11-.21 3.38-5.49h-1.61c-.27 0-.48.05-.65.16-.16.1-.27.25-.34.43l-.12.34h-.41l.15-1.72 4.4.01.11.25-3.34 5.45h1.69c.18 0 .33-.01.45-.04.14-.01.23-.06.33-.1.08-.04.15-.1.21-.15.05-.07.11-.15.15-.23l.22-.45h.37l-.2 1.75zm6.85-1.93c-.18.45-.41.84-.71 1.17-.3.32-.64.56-1.03.73-.4.18-.8.26-1.2.26-.41 0-.81-.07-1.17-.22-.37-.14-.69-.34-.96-.62-.26-.26-.48-.6-.65-.99-.15-.4-.23-.84-.23-1.35 0-.56.1-1.07.26-1.53.18-.45.43-.85.71-1.17.3-.31.65-.56 1.03-.74.38-.18.8-.26 1.22-.26.43 0 .81.08 1.18.23.37.15.69.36.95.65.28.28.48.61.63.99.17.4.23.83.23 1.31.02.56-.07 1.08-.26 1.54zm-1.13-2.49c-.1-.3-.23-.56-.4-.78-.18-.21-.37-.37-.59-.48a1.53 1.53 0 0 0-.7-.16c-.23 0-.47.07-.69.18-.23.12-.44.29-.61.52-.18.23-.33.52-.43.87-.11.34-.16.74-.16 1.2 0 .41.05.78.15 1.08.1.32.23.58.4.8.18.21.37.37.59.48.22.1.45.15.7.15.23 0 .45-.06.69-.17.22-.11.43-.29.6-.52.18-.22.32-.51.43-.87.11-.34.17-.76.17-1.22.01-.41-.05-.76-.15-1.08zm7.49 4.55c-.14 0-.29-.01-.45-.03-.15-.01-.3-.04-.44-.1v-.23c.18-.08.3-.18.37-.33.08-.14.12-.33.12-.58v-2.62c0-.33-.04-.62-.1-.85-.07-.25-.16-.44-.29-.58a1.06 1.06 0 0 0-.43-.33c-.18-.07-.36-.1-.56-.1-.28 0-.55.04-.8.12-.26.08-.47.19-.62.3v4.62l.77.21v.26c-.12.04-.23.08-.34.11-.12.03-.25.06-.37.07-.12.01-.26.03-.41.04-.14 0-.29.01-.47.01-.16 0-.34-.01-.52-.03a1.65 1.65 0 0 1-.51-.1v-.23c.1-.03.18-.07.26-.12.1-.05.16-.11.23-.18.07-.05.12-.12.18-.21.04-.07.05-.15.05-.23v-4.64l-.89-.37v-.3c.32-.1.62-.15.91-.19.29-.04.54-.06.74-.06h.33v.74c.23-.23.54-.43.89-.56.36-.14.74-.21 1.14-.21.29 0 .55.04.78.14.23.1.44.23.6.41.17.18.3.4.4.66.08.28.14.59.14.93v3.85l.71.21v.26c-.36.16-.84.24-1.42.24zm7.83-.21c-.15.1-.33.21-.52.3-.14-.11-.26-.23-.38-.38-.11-.15-.21-.3-.28-.44a2.757 2.757 0 0 1-.82.57c-.16.07-.32.12-.48.16-.17.04-.32.06-.45.06-.34 0-.67-.07-.98-.21-.3-.14-.56-.34-.8-.59-.22-.26-.4-.58-.54-.95-.12-.37-.19-.78-.19-1.24 0-.62.08-1.17.26-1.63.18-.48.41-.88.71-1.2a2.8 2.8 0 0 1 1.04-.74c.4-.17.81-.25 1.26-.25.17 0 .33.01.51.03.18.01.33.04.44.07v-2.42l-.93-.37v-.3c.32-.1.63-.15.93-.19.32-.03.56-.05.77-.05h.44l-.08.77v7.87c.06.14.12.28.21.41.08.14.18.27.32.38-.14.12-.29.23-.44.34zm-1.2-5.61c-.11-.04-.26-.07-.45-.11-.18-.03-.36-.04-.55-.04-.29 0-.56.05-.81.18-.25.11-.47.29-.66.52-.18.23-.32.52-.43.88-.1.36-.15.77-.15 1.25 0 .37.04.7.14.99.1.29.22.54.37.73.15.19.32.34.52.44.19.11.4.15.62.15.14 0 .26-.01.4-.03.14-.03.26-.05.38-.1.12-.04.23-.08.34-.14.11-.05.19-.11.28-.18v-4.54zm8.58 5.76c-.25.03-.51.05-.81.05-.14 0-.29-.01-.44-.03-.17-.01-.3-.04-.44-.1v-.23c.16-.08.29-.18.37-.33.08-.14.12-.33.12-.58v-2.62c0-.33-.03-.62-.1-.85a1.65 1.65 0 0 0-.27-.58c-.12-.15-.28-.26-.44-.33-.18-.07-.37-.1-.59-.1-.12 0-.26.01-.4.03-.12.03-.26.05-.37.1-.12.04-.23.08-.34.14-.1.05-.19.11-.28.16v4.62l.77.21v.26c-.12.04-.23.08-.34.11-.12.03-.23.06-.37.07-.12.01-.26.03-.4.04-.15 0-.3.01-.48.01-.15 0-.33-.01-.51-.03-.19-.01-.37-.04-.52-.1v-.23c.1-.03.18-.07.27-.12.08-.05.17-.11.23-.18.07-.05.12-.12.16-.21.04-.07.05-.15.05-.23V37l-.89-.37v-.3c.32-.1.61-.15.88-.19.28-.03.54-.05.77-.05h.44l-.07.77v3.28c.25-.23.54-.43.87-.56.32-.12.7-.19 1.13-.19.29 0 .56.04.8.14a1.66 1.66 0 0 1 .98 1.07c.1.28.14.59.14.93v3.85l.71.21v.26c-.17.08-.39.13-.63.17zm6.78-3.25h-4.05c0 .38.05.73.15 1.03.11.3.26.55.44.76.18.21.4.37.65.48.25.11.51.16.8.16.16 0 .33-.01.51-.04s.34-.07.51-.12c.18-.04.33-.11.49-.18.15-.08.3-.17.43-.25.01.03.03.08.04.15.01.07.01.14.01.21 0 .17-.05.32-.17.45-.11.14-.26.27-.47.38-.21.11-.45.19-.74.26-.3.07-.63.1-.99.1-.4 0-.76-.07-1.1-.22-.36-.15-.65-.36-.91-.63-.26-.28-.47-.61-.62-.99-.14-.38-.22-.82-.22-1.3 0-.59.08-1.13.25-1.6.16-.45.38-.84.66-1.15.26-.3.56-.55.91-.7.34-.16.7-.25 1.06-.25.37 0 .7.06 1 .18.29.12.54.29.74.51.21.23.36.5.47.81.11.33.16.67.16 1.07v.41c.01.14.01.3-.01.47zm-1.19-1.6c-.07-.25-.16-.45-.29-.62-.12-.16-.26-.29-.44-.37-.16-.08-.36-.12-.55-.12-.19 0-.37.06-.56.17-.19.1-.36.25-.49.43-.15.18-.26.4-.36.63-.1.25-.14.49-.14.77h2.94c0-.35-.04-.64-.11-.89zm4.57 4.78c-.12.03-.23.06-.37.07-.12.01-.26.03-.4.04-.15 0-.3.01-.48.01-.15 0-.33-.01-.51-.03-.19-.01-.37-.04-.52-.1v-.23c.1-.03.18-.07.27-.12.08-.05.17-.11.23-.18.07-.05.12-.12.16-.21.04-.07.05-.15.05-.23v-4.64l-.88-.37v-.29c.32-.1.62-.15.91-.19.29-.06.54-.07.73-.07h.44l-.07.74v5.22l.77.21v.26c-.11.05-.22.09-.33.11zm-.26-8.31c-.04.1-.1.19-.17.26-.07.08-.15.14-.25.18a.63.63 0 0 1-.3.07.74.74 0 0 1-.29-.05.764.764 0 0 1-.23-.17c-.05-.07-.11-.15-.15-.25a.86.86 0 0 1-.05-.32c0-.11.01-.21.05-.3.03-.1.08-.18.15-.26.07-.08.15-.14.25-.18.1-.04.21-.07.33-.07.1 0 .19.01.28.05.08.03.16.08.23.15.07.05.11.14.15.23a.7.7 0 0 1 .05.3c.01.14-.01.25-.05.36zm6.96 8.23c-.15.1-.33.21-.52.3a2.276 2.276 0 0 1-.65-.82 2.757 2.757 0 0 1-.82.57c-.16.07-.32.12-.48.16-.17.04-.32.06-.45.06-.34 0-.67-.07-.98-.21-.3-.14-.56-.34-.8-.59-.22-.26-.4-.58-.54-.95-.12-.37-.19-.78-.19-1.24 0-.62.08-1.17.26-1.63.18-.48.41-.88.71-1.2a2.8 2.8 0 0 1 1.04-.74c.4-.17.81-.25 1.26-.25.17 0 .33.01.51.03.18.01.33.04.44.07v-2.42l-.93-.37v-.3c.32-.1.63-.15.93-.19.32-.03.56-.05.77-.05h.44l-.08.77v7.87c.05.14.12.28.21.41.08.14.18.27.32.38-.15.12-.3.23-.45.34zm-1.19-5.61c-.11-.04-.26-.07-.45-.11-.18-.03-.36-.04-.55-.04-.29 0-.56.05-.81.18-.25.11-.47.29-.66.52-.18.23-.31.52-.43.88-.1.36-.15.77-.15 1.25 0 .37.04.7.14.99.1.29.22.54.37.73.15.19.32.34.52.44.19.11.4.15.62.15.14 0 .26-.01.4-.03.14-.03.26-.05.38-.1.12-.04.23-.08.34-.14.11-.05.19-.11.28-.18v-4.54zm4.64 5.89c-.11.29-.25.55-.41.78-.16.22-.34.41-.54.55-.18.15-.34.25-.49.29l-.37-.1c.27-.29.49-.6.63-.92.15-.32.22-.69.22-1.09l-.48-.61c.05-.08.12-.16.19-.23.07-.08.14-.14.22-.19.07-.06.15-.1.23-.12.08-.04.17-.06.23-.06.22 0 .4.07.54.21.14.15.21.34.21.58 0 .32-.06.62-.18.91zM63.94 53.41c-.11.15-.19.34-.26.58l-2.25 7.56-.54.05-1.91-7.25h-.01l-1.9 7.2-.52.05-2.57-8.2-.76-.23v-.29c.23-.08.47-.14.7-.18.25-.04.48-.06.7-.06.22 0 .43 0 .62.01s.38.06.6.11v.26c-.22.04-.36.14-.43.26-.05.12-.05.3 0 .52l1.5 5.54h.01l1.46-5.95-.73-.22v-.3c.26-.08.51-.14.74-.16.25-.04.49-.06.76-.06.21 0 .4.01.6.03.21.03.37.07.51.11v.26c-.26.1-.36.33-.26.71l1.33 5.56h.01l1.51-5.92-.84-.26v-.29c.26-.07.5-.14.74-.16a4.136 4.136 0 0 1 1.18-.03c.14.03.27.07.41.11v.25c-.15.12-.29.26-.4.39zm5.81 4.88H65.7c0 .38.05.73.15 1.03.11.3.26.55.44.76.18.21.4.37.65.48.25.11.51.17.8.17a3 3 0 0 0 .51-.04c.18-.03.34-.07.51-.12.18-.04.33-.11.49-.18.15-.08.3-.17.43-.25.01.03.03.08.04.15s.01.14.01.21c0 .16-.06.31-.16.45-.11.14-.26.28-.47.38-.21.11-.45.19-.74.26-.3.07-.63.1-.99.1-.4 0-.76-.07-1.1-.22-.36-.15-.65-.36-.91-.63-.26-.28-.47-.6-.62-.99-.14-.38-.22-.82-.22-1.3 0-.59.08-1.13.25-1.59.17-.45.38-.84.66-1.15.26-.3.56-.55.91-.7.34-.17.7-.25 1.06-.25.37 0 .7.05 1 .18.29.12.54.29.74.51.21.23.36.5.47.81.11.33.17.67.17 1.07v.41c-.02.12-.02.29-.03.45zm-1.2-1.59a1.98 1.98 0 0 0-.29-.62c-.12-.17-.26-.29-.44-.37-.17-.08-.36-.12-.55-.12-.19 0-.37.05-.56.16-.19.1-.36.25-.49.43-.15.18-.26.4-.36.63-.1.25-.14.49-.14.77h2.94c0-.35-.04-.64-.11-.88zm4.57 4.78c-.12.03-.25.05-.37.07-.12.01-.26.03-.41.04-.14 0-.29.01-.47.01-.17 0-.34-.01-.52-.03a1.65 1.65 0 0 1-.51-.1v-.23c.1-.03.18-.07.26-.12.1-.05.17-.11.23-.18.07-.05.12-.12.18-.21.04-.07.05-.15.05-.23v-7.97l-.89-.37v-.3c.15-.04.32-.08.47-.11.15-.03.3-.05.45-.08.14-.01.27-.03.4-.04.12 0 .23-.01.33-.01h.44l-.07.77v8.52l.77.21v.26c-.12.03-.23.07-.34.1zm5.84 0h-4.68l-.11-.21 3.38-5.49h-1.61c-.27 0-.48.05-.65.16-.16.1-.27.25-.34.43l-.12.34h-.41l.15-1.72 4.4.01.11.25-3.34 5.45h1.69c.18 0 .33-.01.45-.04.14-.01.23-.05.33-.1.08-.04.15-.1.21-.15.05-.07.11-.15.15-.23l.22-.45h.37l-.2 1.75zm3.24 0c-.12.03-.23.05-.37.07-.12.01-.26.03-.4.04-.15 0-.3.01-.48.01-.15 0-.33-.01-.51-.03-.19-.01-.37-.04-.52-.1v-.23c.1-.03.18-.07.27-.12.08-.05.17-.11.23-.18.07-.05.12-.12.17-.21.04-.07.05-.15.05-.23v-4.64l-.88-.37v-.29c.32-.1.62-.15.91-.19.29-.05.54-.07.73-.07h.44l-.07.74v5.22l.77.21v.26c-.12.04-.23.08-.34.11zm-.26-8.31c-.04.1-.1.19-.16.26-.07.08-.15.14-.25.18a.63.63 0 0 1-.3.07.74.74 0 0 1-.29-.05.945.945 0 0 1-.23-.16.874.874 0 0 1-.21-.57c0-.11.01-.21.06-.3.03-.1.08-.18.15-.26.07-.08.15-.14.25-.18.1-.04.21-.07.33-.07.1 0 .19.01.28.05.08.03.16.08.23.15.07.06.11.14.15.23.04.08.06.19.06.3-.02.13-.03.24-.07.35zm3.45 2.54v6.17c0 .56-.04 1.03-.12 1.41a3.1 3.1 0 0 1-.33.91c-.14.23-.3.4-.49.49-.19.1-.4.14-.6.14-.16 0-.3-.03-.44-.08a.776.776 0 0 1-.34-.25v-.22c.15 0 .3-.04.45-.12.14-.1.27-.22.38-.4.11-.18.21-.4.26-.66.07-.26.11-.56.11-.91v-6.33l-.88-.37v-.29c.32-.1.62-.15.91-.19.29-.05.54-.07.73-.07h.45l-.09.77zm.15-2.54a.725.725 0 0 1-.4.44.63.63 0 0 1-.3.07.655.655 0 0 1-.52-.21.579.579 0 0 1-.15-.25.86.86 0 0 1-.05-.32c0-.11.01-.21.04-.3.04-.1.1-.18.17-.26.07-.08.15-.14.25-.18.1-.04.21-.07.33-.07.08 0 .18.01.26.05.1.03.17.08.23.15.07.06.11.14.15.23a.7.7 0 0 1 .05.3c0 .13-.02.24-.06.35zm6.53 8.43c-.14 0-.29-.01-.45-.03-.15-.01-.3-.04-.44-.1v-.23c.18-.08.3-.18.37-.33.08-.14.12-.33.12-.58v-2.62c0-.33-.04-.62-.1-.85-.07-.25-.17-.44-.29-.58a1.06 1.06 0 0 0-.43-.33c-.18-.07-.36-.1-.56-.1-.28 0-.55.04-.8.12-.26.08-.47.19-.62.3v4.62l.77.21v.26c-.12.04-.23.08-.34.11-.12.03-.25.05-.37.07-.12.01-.26.03-.41.04-.14 0-.29.01-.47.01-.17 0-.34-.01-.52-.03a1.65 1.65 0 0 1-.51-.1v-.23c.1-.03.18-.07.26-.12.1-.05.17-.11.23-.18.07-.05.12-.12.18-.21.04-.07.05-.15.05-.23v-4.64l-.89-.37v-.3c.32-.1.62-.15.91-.19.29-.04.54-.05.74-.05h.33v.74c.23-.23.54-.43.89-.56.36-.14.74-.21 1.14-.21.29 0 .55.04.78.14.23.1.44.23.6.41.17.18.3.4.4.66.08.27.14.59.14.93v3.85l.71.21v.26c-.37.15-.85.23-1.42.23zm10.31-3.31h-4.05c0 .38.05.73.15 1.03.11.3.26.55.44.76.18.21.4.37.65.48.25.11.51.17.8.17a3 3 0 0 0 .51-.04c.18-.03.34-.07.51-.12.18-.04.33-.11.49-.18.15-.08.3-.17.43-.25.01.03.03.08.04.15.01.07.01.14.01.21 0 .16-.06.31-.17.45-.11.14-.26.28-.47.38-.21.11-.45.19-.74.26-.3.07-.63.1-.99.1-.4 0-.76-.07-1.1-.22-.36-.15-.65-.36-.91-.63-.26-.28-.47-.6-.62-.99-.14-.38-.22-.82-.22-1.3 0-.59.08-1.13.25-1.59.16-.45.38-.84.66-1.15.26-.3.56-.55.91-.7.34-.17.7-.25 1.06-.25.37 0 .7.05 1 .18.29.12.54.29.74.51.21.23.36.5.47.81.11.33.16.67.16 1.07v.41c0 .12 0 .29-.01.45zm-1.2-1.59c-.07-.25-.17-.45-.29-.62s-.26-.29-.44-.37c-.17-.08-.36-.12-.55-.12-.19 0-.37.05-.56.16-.19.1-.36.25-.49.43-.15.18-.26.4-.36.63-.1.25-.14.49-.14.77h2.94c0-.35-.04-.64-.11-.88zm7.33 4.9c-.14 0-.29-.01-.45-.03-.15-.01-.3-.04-.44-.1v-.23c.18-.08.3-.18.37-.33.08-.14.12-.33.12-.58v-2.62c0-.33-.04-.62-.1-.85-.07-.25-.17-.44-.29-.58a1.06 1.06 0 0 0-.43-.33c-.18-.07-.36-.1-.56-.1-.28 0-.55.04-.8.12-.26.08-.47.19-.62.3v4.62l.77.21v.26c-.12.04-.23.08-.34.11-.12.03-.25.05-.37.07-.12.01-.26.03-.41.04-.14 0-.29.01-.47.01-.17 0-.34-.01-.52-.03a1.65 1.65 0 0 1-.51-.1v-.23c.1-.03.18-.07.26-.12.1-.05.17-.11.23-.18.07-.05.12-.12.18-.21.04-.07.05-.15.05-.23v-4.64l-.89-.37v-.3c.32-.1.62-.15.91-.19s.54-.05.74-.05h.33v.74c.23-.23.54-.43.89-.56.36-.14.74-.21 1.14-.21.29 0 .55.04.78.14.23.1.44.23.6.41.17.18.3.4.4.66.08.27.14.59.14.93v3.85l.71.21v.26c-.36.15-.84.23-1.42.23zm9.96-1.59c-.17.31-.38.6-.66.85s-.6.44-.98.58c-.37.15-.76.22-1.17.22-.44 0-.82-.01-1.17-.07-.33-.04-.65-.11-.95-.22v-1.99h.4l.1.34c.05.19.12.36.21.48.08.14.19.26.33.34.12.1.29.15.48.21.19.04.41.05.67.05.25 0 .49-.03.71-.1.22-.07.4-.18.56-.3.17-.12.3-.27.38-.45.1-.18.14-.37.14-.58 0-.26-.1-.52-.29-.78-.18-.26-.48-.51-.91-.76l-1.31-.77c-.84-.49-1.25-1.2-1.25-2.09 0-.34.07-.66.22-.95.15-.3.36-.55.62-.77.25-.21.55-.38.91-.51.36-.11.73-.18 1.13-.18.21 0 .4 0 .58.01.17.01.33.03.5.05a5.656 5.656 0 0 1 .85.25l-.12 1.94h-.4l-.05-.26c-.04-.21-.11-.38-.18-.52a.879.879 0 0 0-.29-.34c-.11-.08-.26-.15-.43-.19-.16-.04-.36-.05-.59-.05-.25 0-.47.04-.67.11-.19.07-.37.17-.51.29-.14.11-.25.25-.33.41-.07.15-.11.32-.11.48 0 .27.08.54.23.76.15.23.43.42.78.63l1.36.74c.48.26.85.56 1.09.92.23.36.36.76.36 1.2.01.34-.08.69-.24 1.02zm7.11-.57c-.18.48-.43.88-.74 1.21-.3.33-.66.58-1.07.73-.4.16-.82.25-1.26.25-.15 0-.3-.01-.47-.04-.17-.03-.3-.07-.41-.12v2.69l.91.19v.28a3 3 0 0 1-.77.16 6.878 6.878 0 0 1-1.48.02c-.18-.01-.34-.05-.51-.1v-.23c.1-.03.18-.07.26-.12.1-.04.16-.1.23-.16.08-.07.14-.14.18-.21.04-.08.06-.16.06-.25v-7.88l-.89-.37v-.3c.32-.1.63-.15.92-.19s.52-.05.73-.05h.33v.63c.22-.21.49-.37.81-.51.33-.12.65-.19.96-.19.34 0 .67.07.98.19.3.12.58.3.8.55.22.25.4.55.54.91.12.36.19.77.19 1.24-.02.63-.12 1.18-.3 1.67zm-1.06-2.36c-.1-.29-.23-.52-.4-.71-.16-.19-.36-.34-.58-.44-.22-.1-.44-.14-.67-.14-.25 0-.48.03-.69.08-.21.05-.4.12-.58.23v4.66c.11.04.25.07.4.08.15.01.32.01.48.01.3 0 .59-.06.87-.17.26-.1.49-.27.69-.49.19-.23.36-.52.47-.87.11-.36.17-.78.17-1.26 0-.36-.06-.69-.16-.98zm8.33 2.46c-.18.45-.41.84-.71 1.17-.3.32-.65.56-1.03.73-.4.18-.8.26-1.2.26-.41 0-.81-.07-1.17-.22-.37-.14-.69-.34-.96-.62-.26-.26-.48-.6-.65-.99-.15-.4-.23-.84-.23-1.35 0-.56.1-1.07.26-1.52.18-.45.43-.85.71-1.17.3-.32.65-.56 1.03-.74.38-.18.8-.26 1.22-.26.43 0 .81.08 1.18.23.37.15.69.36.95.65.28.28.48.6.63.99.17.4.23.82.23 1.31.01.55-.07 1.08-.26 1.53zm-1.13-2.49c-.1-.3-.23-.56-.4-.78-.18-.21-.37-.37-.59-.48a1.53 1.53 0 0 0-.7-.16c-.23 0-.47.07-.69.18-.23.12-.44.29-.61.52-.18.23-.33.52-.43.87-.11.34-.16.74-.16 1.2 0 .41.05.78.15 1.09.1.32.23.58.4.8.18.21.37.37.59.48.22.1.45.15.7.15.23 0 .45-.05.69-.16.22-.11.43-.29.6-.52.18-.22.32-.51.43-.87.11-.34.16-.76.16-1.22.01-.42-.04-.78-.14-1.1zm6.56-1.18c-.04.15-.1.29-.16.41-.12-.1-.26-.18-.41-.23-.15-.05-.29-.08-.44-.08-.42 0-.82.19-1.21.56v4.37l.95.21v.26c-.11.04-.23.08-.36.11-.11.03-.23.05-.37.07-.14.01-.29.03-.44.04-.17 0-.34.01-.54.01-.21 0-.4-.01-.58-.03-.19-.01-.37-.04-.52-.1v-.23c.1-.03.18-.07.26-.12.1-.05.16-.11.23-.18.07-.05.12-.12.18-.21.04-.07.06-.15.06-.23v-4.64l-.89-.37v-.3c.32-.1.62-.15.91-.19.29-.04.54-.05.74-.05h.33v.96h.01l.38-.43c.18-.21.38-.36.58-.45.19-.1.4-.15.63-.15.48 0 .71.19.71.59 0 .11-.01.25-.05.4zm3 5.79c-.55 0-.96-.15-1.24-.45-.26-.3-.4-.78-.4-1.46 0-.33 0-.67.01-1.02.01-.36.01-.69.03-1l.04-1.83h-.76v-.45l1.48-1.47.45-.06-.05 1.24h1.81l-.1.74h-1.76l-.03 1.73c0 .29-.01.56-.01.84v.77c0 .28.01.51.06.7.04.19.1.34.18.47.07.11.15.19.26.25.1.05.22.08.34.08.21 0 .38-.03.56-.1.17-.07.32-.15.45-.26l.14.05c-.03.81-.52 1.23-1.46 1.23z" fill="#1d1d1b"/></svg>