<svg xmlns="http://www.w3.org/2000/svg" width="100" height="100"><path overflow="visible" d="M44.984 5.25c-22.1 0-40.015 7.838-40.015 17.507s17.915 17.507 40.015 17.507S85 32.426 85 22.757 67.084 5.25 44.984 5.25zM5.008 34.95v10.277c2.187 3.311 6.701 5.772 10.004 7.229 7.497 3.213 18.176 5.315 29.972 5.315 11.797 0 22.476-2.102 29.973-5.315C78.269 50.9 82.8 48.737 85 45.148V34.95c-2.24 1.764-4.98 3.279-8.09 4.611-8.343 3.576-19.55 5.706-31.926 5.706-12.375 0-23.583-2.13-31.926-5.706-3.098-1.328-5.815-2.855-8.05-4.61zm-.04 17.467v10.277c2.177 3.335 6.727 5.805 10.044 7.269 7.497 3.213 18.176 5.314 29.972 5.314 11.797 0 22.476-2.101 29.973-5.314C78.27 68.407 82.8 66.244 85 62.655V52.417c-2.24 1.763-4.98 3.317-8.09 4.65-8.343 3.576-19.55 5.705-31.926 5.705-12.375 0-23.582-2.129-31.926-5.705-3.11-1.333-5.85-2.886-8.09-4.65zm0 17.507v5.353c0 9.67 17.923 17.507 40.016 17.507C67.078 92.784 85 84.946 85 75.277v-5.353c-2.24 1.763-4.98 3.317-8.09 4.65-8.343 3.576-19.55 5.705-31.926 5.705-12.375 0-23.582-2.13-31.926-5.705-3.11-1.333-5.85-2.887-8.09-4.65z" color="#000"/><path d="M74.112 49.781a24 24 0 0 1 23.498 24.41 24 24 0 0 1-24.33 23.583 24 24 0 0 1-23.665-24.249 24 24 0 0 1 24.167-23.748" stroke="#fff" stroke-width="4" stroke-linecap="square"/><path d="M85.781 85.781V69.803l-12-11.022-12 11.022v15.978h7v-8h10v8z" fill-rule="evenodd" stroke="#fff" stroke-width="4"/></svg>